<?xml version="1.0" encoding="UTF-8" standalone="no"?><svg xmlns="http://www.w3.org/2000/svg" xmlns:xlink="http://www.w3.org/1999/xlink" fill="#20aa27" height="253" preserveAspectRatio="xMidYMid meet" version="1" viewBox="0.0 0.0 289.3 253.0" width="289.3" zoomAndPan="magnify"><g id="change1_1"><path d="M0.2 0.3L0 252.6 175.2 126.7z"/></g><g><g id="change1_3"><path d="M59.1,4L229,126.7L59,248.8L59.1,4 M59.1,0c-0.6,0-1.2,0.1-1.8,0.4C56,1.1,55.1,2.5,55.1,4L55,248.8 c0,1.5,0.8,2.9,2.2,3.6c0.6,0.3,1.2,0.4,1.8,0.4c0.8,0,1.6-0.3,2.3-0.8l170-122.1c1-0.8,1.7-2,1.7-3.2c0-1.3-0.6-2.5-1.7-3.2 L61.5,0.8C60.8,0.3,60,0,59.1,0L59.1,0z"/></g></g><g><g id="change1_2"><path d="M115.5,4.2l169.8,122.7L115.3,249L115.5,4.2 M115.5,0.2c-0.6,0-1.2,0.1-1.8,0.4c-1.3,0.7-2.2,2.1-2.2,3.6L111.3,249 c0,1.5,0.8,2.9,2.2,3.6c0.6,0.3,1.2,0.4,1.8,0.4c0.8,0,1.6-0.3,2.3-0.8l170-122.1c1-0.8,1.7-2,1.7-3.2c0-1.3-0.6-2.5-1.7-3.2 L117.9,1C117.2,0.5,116.3,0.2,115.5,0.2L115.5,0.2z"/></g></g></svg>